<svg width="319" height="251" fill="none" xmlns="http://www.w3.org/2000/svg"><path d="M59.363 0a6.25 6.25 0 00-6.25 6.25v9.377h-9.372C19.584 15.627 0 35.217 0 59.382v96.887c0 24.166 19.584 43.756 43.74 43.756h59.124c-18.834-26.447-37.253-60.309-37.253-92.59 0-43.99 30.051-81.082 70.704-91.808H90.606V6.25A6.25 6.25 0 0084.357 0H59.363z" fill="#fff"/><path fill-rule="evenodd" clip-rule="evenodd" d="M184.712 15.627c40.652 10.726 70.703 47.818 70.703 91.808 0 32.281-18.418 66.143-37.253 92.59h56.781c24.157 0 43.74-19.59 43.74-43.756V59.382c0-24.165-19.583-43.755-43.74-43.755h-90.231zM293.689 46.88c0 5.178-4.197 9.376-9.373 9.376-5.177 0-9.373-4.198-9.373-9.376 0-5.178 4.196-9.376 9.373-9.376 5.176 0 9.373 4.197 9.373 9.376z" fill="#fff"/><path fill-rule="evenodd" clip-rule="evenodd" d="M74.837 107.476c0-47.193 38.374-85.59 85.547-85.59 47.173 0 85.547 38.397 85.547 85.59 0 63.142-78.929 138.191-82.289 141.358a4.76 4.76 0 01-6.516 0c-3.36-3.167-82.289-78.216-82.289-141.358zm86.068 58.232c31.945 0 57.841-25.897 57.841-57.842s-25.896-57.841-57.841-57.841-57.842 25.896-57.842 57.841 25.897 57.842 57.842 57.842z" fill="#fff"/><path fill-rule="evenodd" clip-rule="evenodd" d="M160.905 153.202c25.038 0 45.336-20.298 45.336-45.336 0-25.037-20.298-45.335-45.336-45.335a45.126 45.126 0 00-23 6.26c8.426.237 15.184 7.142 15.184 15.626 0 8.634-6.999 15.633-15.633 15.633-8.483 0-15.389-6.758-15.626-15.184a45.12 45.12 0 00-6.26 23c0 25.038 20.298 45.336 45.335 45.336z" fill="#fff"/></svg>