<svg width="56" height="56" viewBox="0 0 56 56" fill="none" xmlns="http://www.w3.org/2000/svg">
<rect x="1" y="1" width="54" height="54" rx="11" stroke="#FF2854" stroke-width="2"/>
<mask id="mask0" mask-type="alpha" maskUnits="userSpaceOnUse" x="28" y="28" width="14" height="14">
<path d="M42 36H36V42H34V36H28V34H34V28H36V34H42V36Z" fill="#979797"/>
</mask>
<g mask="url(#mask0)">
<rect x="15" y="15" width="40" height="40" fill="#FF2854"/>
</g>
<path d="M26 12H18C17.4696 12 16.9609 12.2107 16.5858 12.5858C16.2107 12.9609 16 13.4696 16 14V30C16 31.11 16.89 32 18 32H30C31.11 32 32 31.11 32 30V18L26 12ZM30 30H18V14H25V19H30V30ZM23 29H22.75C21.45 29 19 28.22 19 25.25C19 22.28 21.45 21.5 22.75 21.5H23V23H22.75C22.38 23 20.5 23.13 20.5 25.25C20.5 27.44 22.5 27.5 22.75 27.5H23V29ZM26 26H22V24.5H26V26ZM25 21.5H25.25C26.55 21.5 29 22.28 29 25.25C29 28.22 26.55 29 25.25 29H25V27.5H25.25C25.62 27.5 27.5 27.37 27.5 25.25C27.5 23.06 25.5 23 25.25 23H25V21.5Z" fill="#FF2854"/>
</svg>
